<svg xmlns="http://www.w3.org/2000/svg" width="24" height="15"><g fill="none" fill-rule="evenodd"><path fill="#333" fill-rule="nonzero" d="M2.587 9.32c.77 0 1.378.245 1.826.736.444.487.666 1.162.666 2.025l-.005.285h-3.75c.033.43.173.771.42 1.025.247.251.564.376.95.376.301 0 .55-.071.747-.214.193-.144.413-.409.66-.795l1.021.569a4.06 4.06 0 0 1-.5.69c-.175.192-.363.35-.563.473-.2.123-.418.214-.65.271a3.164 3.164 0 0 1-.758.086c-.78 0-1.407-.25-1.88-.752C.3 13.59.062 12.921.062 12.086c0-.827.23-1.497.688-2.009.462-.504 1.074-.757 1.837-.757Zm8.877-3.678.001 9.055h-1.214v-.548c-.476.465-1.015.698-1.616.698-.716 0-1.31-.261-1.783-.784-.47-.534-.704-1.2-.704-1.998 0-.78.234-1.433.704-1.955a2.245 2.245 0 0 1 1.756-.79c.612 0 1.16.25 1.643.752V8.07l1.213-2.428Zm3.804 3.678c.77 0 1.379.245 1.826.736.444.487.666 1.162.666 2.025l-.005.285h-3.75c.033.43.173.771.42 1.025.247.251.564.376.95.376.301 0 .55-.071.747-.214.193-.144.414-.409.66-.795l1.021.569a4.06 4.06 0 0 1-.5.69c-.175.192-.363.35-.563.473a2.26 2.26 0 0 1-.65.271 3.164 3.164 0 0 1-.757.086c-.781 0-1.408-.25-1.88-.752-.473-.505-.71-1.174-.71-2.009 0-.827.23-1.497.688-2.009.462-.504 1.074-.757 1.837-.757Zm6.45 0c.61 0 1.084.192 1.424.575.294.326.44.857.44 1.595v3.207H22.37v-2.922c0-.516-.072-.872-.215-1.07-.14-.2-.394-.3-.763-.3-.4 0-.686.133-.854.398-.165.26-.247.717-.247 1.37v2.524h-1.214V9.465h1.214v.484c.423-.42.899-.629 1.429-.629Zm-12.88 1.09c-.415 0-.762.158-1.041.473-.276.319-.414.713-.414 1.182 0 .501.135.91.403 1.224a1.32 1.32 0 0 0 1.042.478c.448 0 .81-.154 1.085-.462.276-.318.414-.723.414-1.213 0-.49-.138-.896-.414-1.214-.276-.312-.634-.468-1.074-.468Zm-6.224 0c-.147 0-.285.023-.414.068a1.183 1.183 0 0 0-.623.496 1.41 1.41 0 0 0-.172.403h2.428c-.168-.644-.575-.967-1.22-.967Zm12.68 0c-.146 0-.284.023-.413.068a1.183 1.183 0 0 0-.623.496 1.41 1.41 0 0 0-.172.403h2.428c-.168-.644-.575-.967-1.22-.967Z"/><path fill="#00B48C" d="m5.193.163 4 7.93h-4l-4-7.93h4Zm8.047 0-2.046 3.965-4-.001L9.193.163h4.047Z"/></g></svg>