<svg xmlns="http://www.w3.org/2000/svg" width="170" height="72"><defs><linearGradient id="a" x1="0%" x2="100%" y1="47.868%" y2="52.12%"><stop offset="0%" stop-color="#292D30"/><stop offset="100%" stop-color="#33393E"/></linearGradient><linearGradient id="b" x1="9.32%" x2="91.499%" y1="5.113%" y2="89.477%"><stop offset="0%" stop-color="#B31F0D"/><stop offset="100%" stop-color="#DE4F0B"/></linearGradient></defs><g fill="none" fill-rule="evenodd"><path fill="url(#a)" fill-rule="nonzero" d="M46.85 66.754h75v5h-75v-5Zm95.11-11.23h1.75v-15.75h-1.75v-5.74h16.065c3.01 0 5.308.618 6.895 1.855 1.587 1.236 2.38 3.243 2.38 6.02 0 1.563-.315 2.916-.945 4.06-.63 1.143-1.528 1.936-2.695 2.38l.035.35c2.24.35 3.36 1.726 3.36 4.13v2.695h1.645v5.74h-11.095v-8.225c0-.91-.134-1.599-.403-2.065-.268-.467-.688-.782-1.26-.945-.571-.164-1.382-.245-2.432-.245v5.74h2.31v5.74h-13.86v-5.74Zm13.44-10.01c.677 0 1.184-.181 1.523-.543.338-.361.507-.927.507-1.697v-1.26c0-.77-.17-1.336-.507-1.698-.339-.361-.846-.542-1.523-.542h-1.89v5.74h1.89Zm-38.395 15.75v-5.74h1.75v-15.75h-1.75v-5.74h23.625v10.57h-7.84v-4.83h-4.235v5.53h3.08v3.99h-3.08v6.23h4.235v-5.53h7.84v11.27h-23.625Zm-1.19-18.76h-6.02v-2.73h-2.24v15.75h2.45v5.74h-14.7v-5.74h2.45v-15.75h-2.24v2.73h-6.02v-8.47h26.32v8.47Zm-38.92-8.47h11.48v5.74h-1.75v21.49H76.79L66.535 45.479v10.045h1.68v5.74h-11.48v-5.74h1.75v-15.75h-1.75v-5.74H69.37l9.205 14.035v-8.295h-1.68v-5.74ZM42.49 61.754c-3.663 0-6.492-.805-8.488-2.415-1.995-1.61-2.992-4.224-2.992-7.84V39.774h-1.75v-5.74h12.95v5.74h-1.4v13.51c0 .77.17 1.336.508 1.697.338.362.845.543 1.522.543s1.184-.181 1.522-.543c.339-.361.508-.927.508-1.697v-13.51h-1.4v-5.74h12.005v5.74h-1.75v11.725c0 3.616-.968 6.23-2.905 7.84-1.937 1.61-4.713 2.415-8.33 2.415ZM28 39.774h-1.75v15.75H28v5.74H14.77v-5.74h1.68v-5.775h-4.9v5.775h1.68v5.74H0v-5.74h1.75v-15.75H0v-5.74h13.23v5.74h-1.68v5.32h4.9v-5.32h-1.68v-5.74H28v5.74Zm18.85-15.74h75v5h-75v-5Z" transform="translate(.407 .246)"/><path fill="url(#b)" d="m84.35 14.082-5.594 3.134 1.253-6.289-4.71-4.351 6.368-.752L84.35 0l2.683 5.824 6.368.752-4.71 4.351 1.253 6.289z" transform="translate(.407 .246)"/></g></svg>