<svg width="252" height="60" xmlns="http://www.w3.org/2000/svg" xmlns:xlink="http://www.w3.org/1999/xlink"><defs><linearGradient x1="0%" y1="60.651%" x2="100%" y2="39.349%" id="b"><stop stop-color="#76BFF3" offset="0%"/><stop stop-color="#E47DE7" offset="100%"/></linearGradient><linearGradient x1="100%" y1="45.339%" x2="12.42%" y2="51.629%" id="c"><stop stop-color="#C757E0" offset="0%"/><stop stop-color="#43A7EF" offset="100%"/></linearGradient><path d="M100 0c16.569 0 30 13.431 30 30 0 16.569-13.431 30-30 30H81.74a2.01 2.01 0 01-1.82-1.554c-.014-.139-.03-.277-.048-.414L79.87 58a14.962 14.962 0 00-3.714-8.027A14.962 14.962 0 0065 45c-4.43 0-8.41 1.92-11.156 4.973A14.944 14.944 0 0050.132 58c-.002.007-.002.015-.002.022-.02.14-.036.282-.05.423a2 2 0 01-2.08 1.55l-.001.005H30C13.431 60 0 46.569 0 30 0 13.431 13.431 0 30 0h70zm0 10H30c-11.046 0-20 8.954-20 20s8.954 20 20 20h12.08C45.938 41.17 54.748 35 65 35c10.252 0 19.062 6.17 22.92 15H100c11.046 0 20-8.954 20-20s-8.954-20-20-20z" id="a"/></defs><g fill="none" fill-rule="evenodd"><mask id="d" fill="#fff"><use xlink:href="#a"/></mask><use fill="url(#b)" xlink:href="#a"/><path d="M-42.764 56C25.713 56 83.87 52.697 130 23v38C57.412 82.21-.176 80.542-42.764 56z" fill="url(#c)" mask="url(#d)"/><path d="M163.493 49c1.17 0 2.1-.254 2.791-.762.691-.508 1.285-1.288 1.781-2.339l13.397-29.433c.708-1.577.717-2.882.026-3.916-.69-1.033-1.727-1.55-3.11-1.55-1.134 0-2.029.272-2.684.815-.656.543-1.196 1.322-1.622 2.339l-10.42 23.914-10.419-23.862c-.46-1.051-1-1.848-1.621-2.391-.62-.543-1.533-.815-2.738-.815-1.488 0-2.596.517-3.322 1.55-.727 1.034-.736 2.34-.027 3.916L158.922 45.9c.46 1.051 1.054 1.83 1.78 2.339.727.508 1.657.762 2.791.762zm48.954 0c1.743 0 2.84-.577 3.293-1.73.453-1.153.314-2.404-.418-3.752l-3.24-6.12c-1.185-2.165-2.701-3.53-4.548-4.098 2.614-.674 4.626-1.943 6.037-3.806 1.411-1.862 2.117-4.195 2.117-6.998 0-3.62-1.115-6.44-3.345-8.462-2.23-2.023-5.401-3.034-9.513-3.034h-12.7c-2.754 0-4.13 1.401-4.13 4.204v29.538c0 1.349.348 2.395 1.045 3.14.697.745 1.708 1.118 3.032 1.118s2.326-.373 3.005-1.118c.68-.745 1.02-1.791 1.02-3.14v-10.75h3.972c1.045 0 1.951.177 2.718.532.766.355 1.41 1.029 1.934 2.022l5.017 9.42c.523 1.03 1.15 1.792 1.882 2.289.732.497 1.672.745 2.822.745zm-11.076-21H194V18h7.371c4.42 0 6.629 1.658 6.629 4.975 0 3.35-2.21 5.025-6.629 5.025zm46.749 21c1.102 0 2-.28 2.692-.84.693-.562 1.084-1.28 1.173-2.156.09-.876-.222-1.77-.933-2.68l-10.343-13.56 9.97-13.035c.71-.946 1.013-1.857.906-2.733a3.17 3.17 0 00-1.2-2.155c-.692-.56-1.554-.841-2.585-.841-.889 0-1.67.21-2.346.63-.675.421-1.35 1.087-2.026 1.998l-7.411 10.196-7.465-10.196c-1.28-1.752-2.719-2.628-4.318-2.628-1.067 0-1.937.29-2.613.867-.675.578-1.066 1.297-1.173 2.155-.106.859.196 1.76.907 2.707l9.917 13.034-10.397 13.56c-.675.912-.96 1.805-.853 2.681a3.17 3.17 0 001.2 2.155c.693.56 1.572.841 2.639.841.853 0 1.617-.21 2.292-.63.676-.421 1.35-1.104 2.026-2.05l7.785-10.565L243.8 46.32c.711.946 1.395 1.629 2.053 2.05.657.42 1.413.63 2.266.63z" fill="#332C2B" fill-rule="nonzero"/></g></svg>